<mxfile host="app.diagrams.net" modified="2023-03-10T03:21:29.449Z" agent="5.0 (Macintosh; Intel Mac OS X 10_15_7) AppleWebKit/537.36 (KHTML, like Gecko) Chrome/110.0.0.0 Safari/537.36" etag="v82e7-rswZ4CTSdeJEYC" version="20.5.3" type="github">
  <diagram id="3COWgc3KkCG7rhp1273s" name="Page-1">
    <mxGraphModel dx="1351" dy="756" grid="1" gridSize="10" guides="1" tooltips="1" connect="1" arrows="1" fold="1" page="1" pageScale="1" pageWidth="827" pageHeight="1169" math="0" shadow="0">
      <root>
        <mxCell id="0" />
        <mxCell id="1" parent="0" />
        <mxCell id="2L00r8f2BpGmQtD-4_2--5" value="API&lt;br&gt;" style="rounded=1;whiteSpace=wrap;html=1;" vertex="1" parent="1">
          <mxGeometry x="370" y="250" width="120" height="60" as="geometry" />
        </mxCell>
        <mxCell id="2L00r8f2BpGmQtD-4_2--6" value="Web Socket&lt;br&gt;" style="rounded=1;whiteSpace=wrap;html=1;" vertex="1" parent="1">
          <mxGeometry x="370" y="190" width="120" height="60" as="geometry" />
        </mxCell>
        <mxCell id="2L00r8f2BpGmQtD-4_2--8" value="Pre-cache" style="rounded=1;whiteSpace=wrap;html=1;" vertex="1" parent="1">
          <mxGeometry x="250" y="190" width="120" height="60" as="geometry" />
        </mxCell>
        <mxCell id="2L00r8f2BpGmQtD-4_2--11" value="&lt;span style=&quot;&quot;&gt;&lt;font style=&quot;font-size: 14px;&quot;&gt;&lt;br&gt;&lt;br&gt;&lt;br&gt;&lt;br&gt;Application Server (precache enable)&lt;br&gt;&lt;br&gt;&lt;/font&gt;&lt;/span&gt;" style="text;html=1;align=center;verticalAlign=middle;resizable=0;points=[];autosize=1;strokeColor=none;fillColor=none;" vertex="1" parent="1">
          <mxGeometry x="255" y="90" width="250" height="110" as="geometry" />
        </mxCell>
        <mxCell id="2L00r8f2BpGmQtD-4_2--12" value="" style="endArrow=none;dashed=1;html=1;rounded=0;" edge="1" parent="1">
          <mxGeometry width="50" height="50" relative="1" as="geometry">
            <mxPoint x="240" y="120" as="sourcePoint" />
            <mxPoint x="520" y="120" as="targetPoint" />
          </mxGeometry>
        </mxCell>
        <mxCell id="2L00r8f2BpGmQtD-4_2--13" value="" style="endArrow=none;dashed=1;html=1;rounded=0;" edge="1" parent="1">
          <mxGeometry width="50" height="50" relative="1" as="geometry">
            <mxPoint x="240" y="320" as="sourcePoint" />
            <mxPoint x="520" y="320" as="targetPoint" />
          </mxGeometry>
        </mxCell>
        <mxCell id="2L00r8f2BpGmQtD-4_2--14" value="" style="endArrow=none;dashed=1;html=1;dashPattern=1 3;strokeWidth=2;rounded=0;" edge="1" parent="1">
          <mxGeometry width="50" height="50" relative="1" as="geometry">
            <mxPoint x="240" y="320" as="sourcePoint" />
            <mxPoint x="240" y="120" as="targetPoint" />
          </mxGeometry>
        </mxCell>
        <mxCell id="2L00r8f2BpGmQtD-4_2--15" value="" style="endArrow=none;dashed=1;html=1;dashPattern=1 3;strokeWidth=2;rounded=0;" edge="1" parent="1">
          <mxGeometry width="50" height="50" relative="1" as="geometry">
            <mxPoint x="520" y="320" as="sourcePoint" />
            <mxPoint x="520" y="120" as="targetPoint" />
          </mxGeometry>
        </mxCell>
        <mxCell id="2L00r8f2BpGmQtD-4_2--16" value="API&lt;br&gt;" style="rounded=1;whiteSpace=wrap;html=1;" vertex="1" parent="1">
          <mxGeometry x="650" y="250" width="120" height="60" as="geometry" />
        </mxCell>
        <mxCell id="2L00r8f2BpGmQtD-4_2--17" value="Web Socket&lt;br&gt;" style="rounded=1;whiteSpace=wrap;html=1;" vertex="1" parent="1">
          <mxGeometry x="650" y="190" width="120" height="60" as="geometry" />
        </mxCell>
        <mxCell id="2L00r8f2BpGmQtD-4_2--19" value="" style="endArrow=none;dashed=1;html=1;rounded=0;" edge="1" parent="1">
          <mxGeometry width="50" height="50" relative="1" as="geometry">
            <mxPoint x="569.9999999999998" y="120" as="sourcePoint" />
            <mxPoint x="849.9999999999998" y="120" as="targetPoint" />
          </mxGeometry>
        </mxCell>
        <mxCell id="2L00r8f2BpGmQtD-4_2--22" value="&lt;span style=&quot;&quot;&gt;&lt;font style=&quot;font-size: 14px;&quot;&gt;&lt;br&gt;&lt;br&gt;Application Server (disable)&lt;br&gt;&lt;/font&gt;&lt;br&gt;&lt;/span&gt;" style="text;html=1;align=center;verticalAlign=middle;resizable=0;points=[];autosize=1;strokeColor=none;fillColor=none;" vertex="1" parent="1">
          <mxGeometry x="605" y="115" width="190" height="80" as="geometry" />
        </mxCell>
        <mxCell id="2L00r8f2BpGmQtD-4_2--28" value="" style="endArrow=none;dashed=1;html=1;dashPattern=1 3;strokeWidth=2;rounded=0;" edge="1" parent="1">
          <mxGeometry width="50" height="50" relative="1" as="geometry">
            <mxPoint x="569.9999999999998" y="320" as="sourcePoint" />
            <mxPoint x="569.9999999999998" y="120" as="targetPoint" />
          </mxGeometry>
        </mxCell>
        <mxCell id="2L00r8f2BpGmQtD-4_2--29" value="" style="endArrow=none;dashed=1;html=1;dashPattern=1 3;strokeWidth=2;rounded=0;" edge="1" parent="1">
          <mxGeometry width="50" height="50" relative="1" as="geometry">
            <mxPoint x="849.9999999999998" y="320" as="sourcePoint" />
            <mxPoint x="849.9999999999998" y="120" as="targetPoint" />
          </mxGeometry>
        </mxCell>
        <mxCell id="2L00r8f2BpGmQtD-4_2--31" value="" style="endArrow=none;dashed=1;html=1;rounded=0;" edge="1" parent="1">
          <mxGeometry width="50" height="50" relative="1" as="geometry">
            <mxPoint x="569.9999999999998" y="320" as="sourcePoint" />
            <mxPoint x="850" y="320" as="targetPoint" />
          </mxGeometry>
        </mxCell>
        <mxCell id="2L00r8f2BpGmQtD-4_2--33" value="&lt;font style=&quot;font-size: 18px;&quot;&gt;x multiple no precache instance&lt;/font&gt;" style="text;html=1;align=center;verticalAlign=middle;resizable=0;points=[];autosize=1;strokeColor=none;fillColor=none;" vertex="1" parent="1">
          <mxGeometry x="570" y="90" width="280" height="40" as="geometry" />
        </mxCell>
        <mxCell id="2L00r8f2BpGmQtD-4_2--37" value="REDIS&lt;br&gt;" style="ellipse;whiteSpace=wrap;html=1;fontSize=18;" vertex="1" parent="1">
          <mxGeometry x="490" y="430" width="120" height="80" as="geometry" />
        </mxCell>
        <mxCell id="2L00r8f2BpGmQtD-4_2--38" value="" style="endArrow=classic;html=1;rounded=0;fontSize=14;exitX=0.75;exitY=1;exitDx=0;exitDy=0;entryX=0;entryY=0.5;entryDx=0;entryDy=0;" edge="1" parent="1" source="2L00r8f2BpGmQtD-4_2--8" target="2L00r8f2BpGmQtD-4_2--37">
          <mxGeometry width="50" height="50" relative="1" as="geometry">
            <mxPoint x="460" y="340" as="sourcePoint" />
            <mxPoint x="510" y="290" as="targetPoint" />
            <Array as="points">
              <mxPoint x="340" y="470" />
            </Array>
          </mxGeometry>
        </mxCell>
        <mxCell id="2L00r8f2BpGmQtD-4_2--39" value="" style="endArrow=classic;startArrow=classic;html=1;rounded=0;fontSize=14;entryX=0.5;entryY=1;entryDx=0;entryDy=0;exitX=0;exitY=0;exitDx=0;exitDy=0;" edge="1" parent="1" source="2L00r8f2BpGmQtD-4_2--37" target="2L00r8f2BpGmQtD-4_2--5">
          <mxGeometry width="50" height="50" relative="1" as="geometry">
            <mxPoint x="460" y="340" as="sourcePoint" />
            <mxPoint x="510" y="290" as="targetPoint" />
            <Array as="points">
              <mxPoint x="430" y="440" />
            </Array>
          </mxGeometry>
        </mxCell>
        <mxCell id="2L00r8f2BpGmQtD-4_2--40" value="" style="endArrow=classic;startArrow=classic;html=1;rounded=0;fontSize=14;entryX=0.087;entryY=1.019;entryDx=0;entryDy=0;exitX=1;exitY=0;exitDx=0;exitDy=0;entryPerimeter=0;" edge="1" parent="1" source="2L00r8f2BpGmQtD-4_2--37" target="2L00r8f2BpGmQtD-4_2--16">
          <mxGeometry width="50" height="50" relative="1" as="geometry">
            <mxPoint x="610.4610494821125" y="463.4983111046424" as="sourcePoint" />
            <mxPoint x="519.9999999999998" y="330" as="targetPoint" />
            <Array as="points">
              <mxPoint x="660" y="442" />
            </Array>
          </mxGeometry>
        </mxCell>
        <mxCell id="2L00r8f2BpGmQtD-4_2--41" value="Read &amp;amp; Write Cache" style="edgeLabel;html=1;align=center;verticalAlign=middle;resizable=0;points=[];fontSize=14;" vertex="1" connectable="0" parent="2L00r8f2BpGmQtD-4_2--40">
          <mxGeometry x="0.4721" relative="1" as="geometry">
            <mxPoint y="5" as="offset" />
          </mxGeometry>
        </mxCell>
        <mxCell id="2L00r8f2BpGmQtD-4_2--45" value="Write Cache" style="edgeLabel;html=1;align=center;verticalAlign=middle;resizable=0;points=[];fontSize=14;" vertex="1" connectable="0" parent="2L00r8f2BpGmQtD-4_2--40">
          <mxGeometry x="0.4721" relative="1" as="geometry">
            <mxPoint x="-320" y="46" as="offset" />
          </mxGeometry>
        </mxCell>
        <mxCell id="2L00r8f2BpGmQtD-4_2--52" value="Read &amp;amp; Write Cache" style="edgeLabel;html=1;align=center;verticalAlign=middle;resizable=0;points=[];fontSize=14;" vertex="1" connectable="0" parent="2L00r8f2BpGmQtD-4_2--40">
          <mxGeometry x="0.4721" relative="1" as="geometry">
            <mxPoint x="-230" y="6" as="offset" />
          </mxGeometry>
        </mxCell>
        <mxCell id="2L00r8f2BpGmQtD-4_2--47" value="Database&lt;br&gt;" style="shape=cylinder3;whiteSpace=wrap;html=1;boundedLbl=1;backgroundOutline=1;size=15;fontSize=14;" vertex="1" parent="1">
          <mxGeometry x="710" y="505" width="60" height="80" as="geometry" />
        </mxCell>
        <mxCell id="2L00r8f2BpGmQtD-4_2--48" value="Read" style="endArrow=classic;html=1;rounded=0;fontSize=14;exitX=0.5;exitY=0;exitDx=0;exitDy=0;entryX=0.75;entryY=1;entryDx=0;entryDy=0;exitPerimeter=0;" edge="1" parent="1" source="2L00r8f2BpGmQtD-4_2--47" target="2L00r8f2BpGmQtD-4_2--16">
          <mxGeometry width="50" height="50" relative="1" as="geometry">
            <mxPoint x="460" y="330" as="sourcePoint" />
            <mxPoint x="510" y="280" as="targetPoint" />
          </mxGeometry>
        </mxCell>
        <mxCell id="2L00r8f2BpGmQtD-4_2--49" value="" style="endArrow=classic;html=1;rounded=0;fontSize=14;entryX=0.25;entryY=1;entryDx=0;entryDy=0;" edge="1" parent="1" target="2L00r8f2BpGmQtD-4_2--8">
          <mxGeometry width="50" height="50" relative="1" as="geometry">
            <mxPoint x="710" y="540" as="sourcePoint" />
            <mxPoint x="260" y="250" as="targetPoint" />
            <Array as="points">
              <mxPoint x="280" y="540" />
            </Array>
          </mxGeometry>
        </mxCell>
        <mxCell id="2L00r8f2BpGmQtD-4_2--50" value="Read by schedule" style="edgeLabel;html=1;align=center;verticalAlign=middle;resizable=0;points=[];fontSize=14;" vertex="1" connectable="0" parent="2L00r8f2BpGmQtD-4_2--49">
          <mxGeometry x="0.0036" relative="1" as="geometry">
            <mxPoint x="81" as="offset" />
          </mxGeometry>
        </mxCell>
        <mxCell id="2L00r8f2BpGmQtD-4_2--53" value="&lt;font style=&quot;font-size: 18px;&quot;&gt;only 1 instance can precache&lt;/font&gt;" style="text;html=1;align=center;verticalAlign=middle;resizable=0;points=[];autosize=1;strokeColor=none;fillColor=none;fontSize=14;" vertex="1" parent="1">
          <mxGeometry x="250" y="90" width="260" height="40" as="geometry" />
        </mxCell>
        <mxCell id="2L00r8f2BpGmQtD-4_2--56" value="Read" style="endArrow=classic;html=1;rounded=0;fontSize=14;exitX=0.5;exitY=0;exitDx=0;exitDy=0;entryX=1;entryY=1;entryDx=0;entryDy=0;exitPerimeter=0;" edge="1" parent="1" source="2L00r8f2BpGmQtD-4_2--47" target="2L00r8f2BpGmQtD-4_2--5">
          <mxGeometry width="50" height="50" relative="1" as="geometry">
            <mxPoint x="750" y="480" as="sourcePoint" />
            <mxPoint x="750" y="320" as="targetPoint" />
          </mxGeometry>
        </mxCell>
      </root>
    </mxGraphModel>
  </diagram>
</mxfile>
